<mxfile host="app.diagrams.net" agent="Mozilla/5.0 (Windows NT 10.0; Win64; x64) AppleWebKit/537.36 (KHTML, like Gecko) Chrome/140.0.0.0 Safari/537.36" version="28.2.3">
  <diagram name="Trang-1" id="C1pPgeH8CmfBWgnheQG8">
    <mxGraphModel dx="1042" dy="562" grid="1" gridSize="10" guides="1" tooltips="1" connect="1" arrows="1" fold="1" page="1" pageScale="1" pageWidth="827" pageHeight="1169" math="0" shadow="0">
      <root>
        <mxCell id="0" />
        <mxCell id="1" parent="0" />
        <mxCell id="h6Y7k2GW4RTkbb-KKs_n-1" value="&lt;b&gt;&lt;font style=&quot;font-size: 24px;&quot;&gt;Bắt đầu&lt;/font&gt;&lt;/b&gt;" style="ellipse;whiteSpace=wrap;html=1;" vertex="1" parent="1">
          <mxGeometry x="319" y="40" width="230" height="80" as="geometry" />
        </mxCell>
        <mxCell id="h6Y7k2GW4RTkbb-KKs_n-2" value="" style="endArrow=classic;html=1;rounded=0;" edge="1" parent="1">
          <mxGeometry width="50" height="50" relative="1" as="geometry">
            <mxPoint x="431.5" y="120" as="sourcePoint" />
            <mxPoint x="432" y="180" as="targetPoint" />
            <Array as="points">
              <mxPoint x="432" y="150" />
            </Array>
          </mxGeometry>
        </mxCell>
        <mxCell id="h6Y7k2GW4RTkbb-KKs_n-3" value="&lt;font style=&quot;font-size: 18px;&quot;&gt;&lt;span style=&quot;color: rgb(0, 0, 0); font-family: Arial, sans-serif; font-size: 16px; text-align: left; white-space-collapse: preserve; background-color: rgb(255, 255, 255);&quot;&gt;&lt;b&gt;sinh viên nhập điểm&lt;/b&gt;&lt;/span&gt;&lt;b&gt;&lt;/b&gt;&lt;/font&gt;" style="shape=parallelogram;perimeter=parallelogramPerimeter;whiteSpace=wrap;html=1;fixedSize=1;" vertex="1" parent="1">
          <mxGeometry x="319" y="180" width="230" height="80" as="geometry" />
        </mxCell>
        <mxCell id="h6Y7k2GW4RTkbb-KKs_n-4" value="&lt;font style=&quot;font-size: 24px;&quot;&gt;&lt;b&gt;Điểm có hợp lệ&lt;/b&gt;&lt;/font&gt;" style="rhombus;whiteSpace=wrap;html=1;" vertex="1" parent="1">
          <mxGeometry x="300" y="360" width="260" height="110" as="geometry" />
        </mxCell>
        <mxCell id="h6Y7k2GW4RTkbb-KKs_n-5" value="" style="endArrow=classic;html=1;rounded=0;" edge="1" parent="1">
          <mxGeometry width="50" height="50" relative="1" as="geometry">
            <mxPoint x="429.5" y="260" as="sourcePoint" />
            <mxPoint x="430" y="360" as="targetPoint" />
            <Array as="points">
              <mxPoint x="430" y="290" />
            </Array>
          </mxGeometry>
        </mxCell>
        <mxCell id="h6Y7k2GW4RTkbb-KKs_n-6" value="" style="endArrow=classic;html=1;rounded=0;exitX=1;exitY=1;exitDx=0;exitDy=0;" edge="1" parent="1" source="h6Y7k2GW4RTkbb-KKs_n-4">
          <mxGeometry width="50" height="50" relative="1" as="geometry">
            <mxPoint x="620" y="410" as="sourcePoint" />
            <mxPoint x="630" y="520" as="targetPoint" />
          </mxGeometry>
        </mxCell>
        <mxCell id="h6Y7k2GW4RTkbb-KKs_n-7" value="" style="endArrow=classic;html=1;rounded=0;exitX=0.5;exitY=1;exitDx=0;exitDy=0;" edge="1" parent="1" source="h6Y7k2GW4RTkbb-KKs_n-4">
          <mxGeometry width="50" height="50" relative="1" as="geometry">
            <mxPoint x="460" y="640" as="sourcePoint" />
            <mxPoint x="430" y="600" as="targetPoint" />
          </mxGeometry>
        </mxCell>
        <mxCell id="h6Y7k2GW4RTkbb-KKs_n-8" value="&lt;font style=&quot;font-size: 24px;&quot;&gt;Có&lt;/font&gt;" style="text;html=1;align=center;verticalAlign=middle;whiteSpace=wrap;rounded=0;" vertex="1" parent="1">
          <mxGeometry x="370" y="500" width="60" height="30" as="geometry" />
        </mxCell>
        <mxCell id="h6Y7k2GW4RTkbb-KKs_n-9" value="&lt;font style=&quot;font-size: 24px;&quot;&gt;Không&lt;/font&gt;" style="text;html=1;align=center;verticalAlign=middle;whiteSpace=wrap;rounded=0;" vertex="1" parent="1">
          <mxGeometry x="560" y="440" width="60" height="30" as="geometry" />
        </mxCell>
        <mxCell id="h6Y7k2GW4RTkbb-KKs_n-10" value="&lt;font style=&quot;font-size: 18px;&quot;&gt;Thông báo lỗi&lt;/font&gt;" style="rounded=0;whiteSpace=wrap;html=1;" vertex="1" parent="1">
          <mxGeometry x="560" y="520" width="160" height="60" as="geometry" />
        </mxCell>
        <mxCell id="h6Y7k2GW4RTkbb-KKs_n-11" value="&lt;font style=&quot;font-size: 18px;&quot;&gt;Lưu điểm&lt;/font&gt;" style="rounded=0;whiteSpace=wrap;html=1;" vertex="1" parent="1">
          <mxGeometry x="374" y="605" width="120" height="60" as="geometry" />
        </mxCell>
        <mxCell id="h6Y7k2GW4RTkbb-KKs_n-12" value="" style="endArrow=classic;html=1;rounded=0;entryX=1;entryY=0.5;entryDx=0;entryDy=0;exitX=0.5;exitY=1;exitDx=0;exitDy=0;" edge="1" parent="1" source="h6Y7k2GW4RTkbb-KKs_n-10" target="h6Y7k2GW4RTkbb-KKs_n-11">
          <mxGeometry width="50" height="50" relative="1" as="geometry">
            <mxPoint x="540" y="650" as="sourcePoint" />
            <mxPoint x="590" y="600" as="targetPoint" />
          </mxGeometry>
        </mxCell>
        <mxCell id="h6Y7k2GW4RTkbb-KKs_n-13" value="" style="endArrow=classic;html=1;rounded=0;exitX=0.5;exitY=1;exitDx=0;exitDy=0;" edge="1" parent="1" source="h6Y7k2GW4RTkbb-KKs_n-11">
          <mxGeometry width="50" height="50" relative="1" as="geometry">
            <mxPoint x="420" y="770" as="sourcePoint" />
            <mxPoint x="434" y="710" as="targetPoint" />
          </mxGeometry>
        </mxCell>
        <mxCell id="h6Y7k2GW4RTkbb-KKs_n-14" value="&lt;font style=&quot;font-size: 18px;&quot;&gt;Kết thúc&lt;/font&gt;" style="rounded=0;whiteSpace=wrap;html=1;" vertex="1" parent="1">
          <mxGeometry x="374" y="720" width="120" height="60" as="geometry" />
        </mxCell>
      </root>
    </mxGraphModel>
  </diagram>
</mxfile>
